<?xml version="1.0" encoding="UTF-8" standalone="no"?><!DOCTYPE svg PUBLIC "-//W3C//DTD SVG 1.1//EN" "http://www.w3.org/Graphics/SVG/1.1/DTD/svg11.dtd"><!-- Generated by graphviz version 2.40.1 (20161225.0304)
 --><!-- Title: G Pages: 1 --><svg xmlns="http://www.w3.org/2000/svg" xmlns:xlink="http://www.w3.org/1999/xlink" width="317pt" height="351pt" viewBox="0.00 0.00 317.44 351.33">
<g id="graph0" class="graph" transform="scale(1 1) rotate(0) translate(4 347.3251)">
<title>G</title>
<polygon fill="#ffffff" stroke="transparent" points="-4,4 -4,-347.3251 313.4396,-347.3251 313.4396,4 -4,4"/>
<!-- 0 -->
<g id="node1" class="node">
<title>0</title>
<ellipse fill="none" stroke="#000000" cx="235.081" cy="-29.4156" rx="28.218" ry="29.3315"/>
<text text-anchor="middle" x="235.081" y="-33.6156" font-family="Times,serif" font-size="14.00" fill="#000000">auto</text>
<text text-anchor="middle" x="235.081" y="-16.8156" font-family="Times,serif" font-size="14.00" fill="#000000">E</text>
</g>
<!-- 1 -->
<g id="node2" class="node">
<title>1</title>
<ellipse fill="none" stroke="#000000" cx="207.081" cy="-124.2469" rx="28.218" ry="29.3315"/>
<text text-anchor="middle" x="207.081" y="-128.4469" font-family="Times,serif" font-size="14.00" fill="#000000">auto</text>
<text text-anchor="middle" x="207.081" y="-111.6469" font-family="Times,serif" font-size="14.00" fill="#000000">D</text>
</g>
<!-- 1&#45;&gt;0 -->
<g id="edge1" class="edge">
<title>1-&gt;0</title>
<path fill="none" stroke="#000000" d="M215.4061,-96.0512C218.0622,-87.0555 221.0463,-76.9487 223.8723,-67.3777"/>
<polygon fill="#000000" stroke="#000000" points="227.2645,-68.2483 226.7396,-57.6665 220.551,-66.2661 227.2645,-68.2483"/>
</g>
<!-- 2 -->
<g id="node3" class="node">
<title>2</title>
<ellipse fill="none" stroke="#000000" cx="64.081" cy="-313.9095" rx="64.1621" ry="29.3315"/>
<text text-anchor="middle" x="64.081" y="-318.1095" font-family="Times,serif" font-size="14.00" fill="#000000">cached - auto</text>
<text text-anchor="middle" x="64.081" y="-301.3095" font-family="Times,serif" font-size="14.00" fill="#000000">A</text>
</g>
<!-- 7 -->
<g id="node8" class="node">
<title>7</title>
<ellipse fill="none" stroke="#000000" cx="133.081" cy="-219.0782" rx="28.218" ry="29.3315"/>
<text text-anchor="middle" x="133.081" y="-223.2782" font-family="Times,serif" font-size="14.00" fill="#000000">auto</text>
<text text-anchor="middle" x="133.081" y="-206.4782" font-family="Times,serif" font-size="14.00" fill="#000000">B</text>
</g>
<!-- 2&#45;&gt;7 -->
<g id="edge2" class="edge">
<title>2-&gt;7</title>
<path fill="none" stroke="#000000" d="M84.4101,-285.9699C92.3929,-274.9986 101.6008,-262.3435 109.8449,-251.0131"/>
<polygon fill="#000000" stroke="#000000" points="112.8717,-252.8021 115.9251,-242.6567 107.2114,-248.6836 112.8717,-252.8021"/>
</g>
<!-- 3 -->
<g id="node4" class="node">
<title>3</title>
<ellipse fill="none" stroke="#000000" cx="132.081" cy="-124.2469" rx="28.218" ry="29.3315"/>
<text text-anchor="middle" x="132.081" y="-128.4469" font-family="Times,serif" font-size="14.00" fill="#000000">auto</text>
<text text-anchor="middle" x="132.081" y="-111.6469" font-family="Times,serif" font-size="14.00" fill="#000000">C</text>
</g>
<!-- 4 -->
<g id="node5" class="node">
<title>4</title>
<ellipse fill="none" stroke="#000000" cx="190.081" cy="-313.9095" rx="44.1084" ry="29.3315"/>
<text text-anchor="middle" x="190.081" y="-318.1095" font-family="Times,serif" font-size="14.00" fill="#000000">constant</text>
<text text-anchor="middle" x="190.081" y="-301.3095" font-family="Times,serif" font-size="14.00" fill="#000000">int</text>
</g>
<!-- 4&#45;&gt;1 -->
<g id="edge3" class="edge">
<title>4-&gt;1</title>
<path fill="none" stroke="#000000" d="M192.7372,-284.2747C195.644,-251.8448 200.318,-199.6988 203.5361,-163.7963"/>
<polygon fill="#000000" stroke="#000000" points="207.0366,-163.9462 204.4434,-153.6736 200.0645,-163.3212 207.0366,-163.9462"/>
</g>
<!-- 4&#45;&gt;7 -->
<g id="edge4" class="edge">
<title>4-&gt;7</title>
<path fill="none" stroke="#000000" d="M173.5942,-286.4804C167.2639,-275.9486 159.9657,-263.8065 153.3227,-252.7545"/>
<polygon fill="#000000" stroke="#000000" points="156.3182,-250.9441 148.1666,-244.1763 150.3185,-254.5503 156.3182,-250.9441"/>
</g>
<!-- 5 -->
<g id="node6" class="node">
<title>5</title>
<ellipse fill="none" stroke="#000000" cx="281.081" cy="-313.9095" rx="28.218" ry="29.3315"/>
<text text-anchor="middle" x="281.081" y="-318.1095" font-family="Times,serif" font-size="14.00" fill="#000000">auto</text>
<text text-anchor="middle" x="281.081" y="-301.3095" font-family="Times,serif" font-size="14.00" fill="#000000">F</text>
</g>
<!-- 6 -->
<g id="node7" class="node">
<title>6</title>
<ellipse fill="none" stroke="#000000" cx="263.081" cy="-219.0782" rx="45.3074" ry="29.3315"/>
<text text-anchor="middle" x="263.081" y="-223.2782" font-family="Times,serif" font-size="14.00" fill="#000000">dynamic</text>
<text text-anchor="middle" x="263.081" y="-206.4782" font-family="Times,serif" font-size="14.00" fill="#000000">double</text>
</g>
<!-- 6&#45;&gt;0 -->
<g id="edge5" class="edge">
<title>6-&gt;0</title>
<path fill="none" stroke="#000000" d="M258.706,-189.4434C253.9043,-156.9187 246.175,-104.5624 240.8732,-68.6505"/>
<polygon fill="#000000" stroke="#000000" points="244.3024,-67.9128 239.3793,-58.5312 237.3774,-68.9352 244.3024,-67.9128"/>
</g>
<!-- 6&#45;&gt;1 -->
<g id="edge6" class="edge">
<title>6-&gt;1</title>
<path fill="none" stroke="#000000" d="M246.7329,-191.3941C240.6293,-181.0582 233.6266,-169.1998 227.2211,-158.3526"/>
<polygon fill="#000000" stroke="#000000" points="230.1125,-156.3655 222.0138,-149.5344 224.0849,-159.9249 230.1125,-156.3655"/>
</g>
<!-- 7&#45;&gt;1 -->
<g id="edge7" class="edge">
<title>7-&gt;1</title>
<path fill="none" stroke="#000000" d="M150.9943,-196.1222C160.5584,-183.8658 172.4655,-168.6068 182.8453,-155.3051"/>
<polygon fill="#000000" stroke="#000000" points="185.6835,-157.3572 189.0761,-147.3202 180.1648,-153.0508 185.6835,-157.3572"/>
</g>
<!-- 7&#45;&gt;3 -->
<g id="edge8" class="edge">
<title>7-&gt;3</title>
<path fill="none" stroke="#000000" d="M132.7701,-189.5928C132.6845,-181.4754 132.5902,-172.5358 132.4996,-163.9436"/>
<polygon fill="#000000" stroke="#000000" points="135.9971,-163.6766 132.3917,-153.7141 128.9975,-163.7505 135.9971,-163.6766"/>
</g>
</g>
</svg>